<svg xmlns="http://www.w3.org/2000/svg" viewBox="0 0 900 700"><rect width="900" height="700" fill="#111923"/><text x="30" y="36" fill="white" font-size="21" font-family="sans-serif">36 · Indoor → semi-outdoor · p5wJjkQkbXX / O113</text><text x="30" y="64" fill="#bdc9dd" font-size="15" font-family="sans-serif">Native capture positions in world XY; labels are frame numbers. Blue=indoor, green=exterior.</text><text x="30" y="89" fill="#bdc9dd" font-size="14" font-family="sans-serif">Amber segment: crossing6→7. Shared positions collect rotation/revisit frames; not a floorplan.</text><line x1="586.82" y1="492.46" x2="716.31" y2="427.38" stroke="#91a6c4" stroke-width="2"/><line x1="716.31" y1="427.38" x2="805.00" y2="610.00" stroke="#91a6c4" stroke-width="2"/><line x1="805.00" y1="610.00" x2="680.08" y2="544.61" stroke="#91a6c4" stroke-width="2"/><line x1="680.08" y1="544.61" x2="586.82" y2="492.46" stroke="#91a6c4" stroke-width="2"/><line x1="586.82" y1="492.46" x2="492.91" y2="441.99" stroke="#91a6c4" stroke-width="2"/><line x1="492.91" y1="441.99" x2="430.27" y2="403.95" stroke="#ffd179" stroke-width="5"/><line x1="430.27" y1="403.95" x2="342.87" y2="442.24" stroke="#91a6c4" stroke-width="2"/><line x1="342.87" y1="442.24" x2="284.07" y2="331.06" stroke="#91a6c4" stroke-width="2"/><line x1="284.07" y1="331.06" x2="430.27" y2="403.95" stroke="#91a6c4" stroke-width="2"/><line x1="430.27" y1="403.95" x2="284.07" y2="331.06" stroke="#91a6c4" stroke-width="2"/><line x1="284.07" y1="331.06" x2="75.00" y2="343.28" stroke="#91a6c4" stroke-width="2"/><circle cx="586.82" cy="492.46" r="7" fill="#a6b5ff"/><text x="596.82" y="482.46" fill="white" font-size="14" font-family="sans-serif">1,5</text><circle cx="716.31" cy="427.38" r="7" fill="#a6b5ff"/><text x="726.31" y="417.38" fill="white" font-size="14" font-family="sans-serif">2</text><circle cx="805.00" cy="610.00" r="7" fill="#a6b5ff"/><text x="815.00" y="600.00" fill="white" font-size="14" font-family="sans-serif">3</text><circle cx="680.08" cy="544.61" r="7" fill="#a6b5ff"/><text x="690.08" y="534.61" fill="white" font-size="14" font-family="sans-serif">4</text><circle cx="492.91" cy="441.99" r="7" fill="#a6b5ff"/><text x="502.91" y="431.99" fill="white" font-size="14" font-family="sans-serif">6</text><circle cx="430.27" cy="403.95" r="7" fill="#6ee7ca"/><text x="440.27" y="393.95" fill="white" font-size="14" font-family="sans-serif">7,10</text><circle cx="342.87" cy="442.24" r="7" fill="#6ee7ca"/><text x="352.87" y="432.24" fill="white" font-size="14" font-family="sans-serif">8</text><circle cx="284.07" cy="331.06" r="7" fill="#6ee7ca"/><text x="294.07" y="321.06" fill="white" font-size="14" font-family="sans-serif">9,11</text><circle cx="75.00" cy="343.28" r="7" fill="#6ee7ca"/><text x="85.00" y="333.28" fill="white" font-size="14" font-family="sans-serif">12</text><text x="30" y="670" fill="#bdc9dd" font-size="15" font-family="sans-serif">Arrows/headings are omitted; use RGB playback to inspect actual camera rotation.</text></svg>