<svg xmlns="http://www.w3.org/2000/svg" viewBox="0 0 900 700"><rect width="900" height="700" fill="#111923"/><text x="30" y="36" fill="white" font-size="21" font-family="sans-serif">39 · Indoor → outdoor · pRbA3pwrgk9 / O406</text><text x="30" y="64" fill="#bdc9dd" font-size="15" font-family="sans-serif">Native capture positions in world XY; labels are frame numbers. Blue=indoor, green=exterior.</text><text x="30" y="89" fill="#bdc9dd" font-size="14" font-family="sans-serif">Amber segment: crossing6→7. Shared positions collect rotation/revisit frames; not a floorplan.</text><line x1="159.10" y1="244.66" x2="123.92" y2="339.00" stroke="#91a6c4" stroke-width="2"/><line x1="123.92" y1="339.00" x2="75.00" y2="230.83" stroke="#91a6c4" stroke-width="2"/><line x1="75.00" y1="230.83" x2="161.45" y2="120.00" stroke="#91a6c4" stroke-width="2"/><line x1="161.45" y1="120.00" x2="159.10" y2="244.66" stroke="#91a6c4" stroke-width="2"/><line x1="159.10" y1="244.66" x2="123.92" y2="339.00" stroke="#91a6c4" stroke-width="2"/><line x1="123.92" y1="339.00" x2="119.87" y2="495.82" stroke="#ffd179" stroke-width="5"/><line x1="119.87" y1="495.82" x2="133.66" y2="610.00" stroke="#91a6c4" stroke-width="2"/><line x1="133.66" y1="610.00" x2="202.68" y2="600.42" stroke="#91a6c4" stroke-width="2"/><line x1="202.68" y1="600.42" x2="192.76" y2="499.30" stroke="#91a6c4" stroke-width="2"/><line x1="192.76" y1="499.30" x2="133.66" y2="610.00" stroke="#91a6c4" stroke-width="2"/><line x1="133.66" y1="610.00" x2="119.87" y2="495.82" stroke="#91a6c4" stroke-width="2"/><circle cx="159.10" cy="244.66" r="7" fill="#a6b5ff"/><text x="169.10" y="234.66" fill="white" font-size="14" font-family="sans-serif">1,5</text><circle cx="123.92" cy="339.00" r="7" fill="#a6b5ff"/><text x="133.92" y="329.00" fill="white" font-size="14" font-family="sans-serif">2,6</text><circle cx="75.00" cy="230.83" r="7" fill="#a6b5ff"/><text x="85.00" y="220.83" fill="white" font-size="14" font-family="sans-serif">3</text><circle cx="161.45" cy="120.00" r="7" fill="#a6b5ff"/><text x="171.45" y="110.00" fill="white" font-size="14" font-family="sans-serif">4</text><circle cx="119.87" cy="495.82" r="7" fill="#6ee7ca"/><text x="129.87" y="485.82" fill="white" font-size="14" font-family="sans-serif">7,12</text><circle cx="133.66" cy="610.00" r="7" fill="#6ee7ca"/><text x="143.66" y="600.00" fill="white" font-size="14" font-family="sans-serif">8,11</text><circle cx="202.68" cy="600.42" r="7" fill="#6ee7ca"/><text x="212.68" y="590.42" fill="white" font-size="14" font-family="sans-serif">9</text><circle cx="192.76" cy="499.30" r="7" fill="#6ee7ca"/><text x="202.76" y="489.30" fill="white" font-size="14" font-family="sans-serif">10</text><text x="30" y="670" fill="#bdc9dd" font-size="15" font-family="sans-serif">Arrows/headings are omitted; use RGB playback to inspect actual camera rotation.</text></svg>