<svg xmlns="http://www.w3.org/2000/svg" viewBox="0 0 900 700"><rect width="900" height="700" fill="#111923"/><text x="30" y="36" fill="white" font-size="21" font-family="sans-serif">13 · Indoor → outdoor · 82sE5b5pLXE / O510</text><text x="30" y="64" fill="#bdc9dd" font-size="15" font-family="sans-serif">Native capture positions in world XY; labels are frame numbers. Blue=indoor, green=exterior.</text><text x="30" y="89" fill="#bdc9dd" font-size="14" font-family="sans-serif">Amber segment: crossing6→7. Shared positions collect rotation/revisit frames; not a floorplan.</text><line x1="597.16" y1="610.00" x2="712.97" y2="508.23" stroke="#91a6c4" stroke-width="2"/><line x1="712.97" y1="508.23" x2="592.03" y2="367.37" stroke="#91a6c4" stroke-width="2"/><line x1="592.03" y1="367.37" x2="454.90" y2="287.76" stroke="#91a6c4" stroke-width="2"/><line x1="454.90" y1="287.76" x2="356.96" y2="354.63" stroke="#91a6c4" stroke-width="2"/><line x1="356.96" y1="354.63" x2="255.21" y2="416.27" stroke="#91a6c4" stroke-width="2"/><line x1="255.21" y1="416.27" x2="161.71" y2="314.43" stroke="#ffd179" stroke-width="5"/><line x1="161.71" y1="314.43" x2="119.45" y2="231.82" stroke="#91a6c4" stroke-width="2"/><line x1="119.45" y1="231.82" x2="189.06" y2="158.39" stroke="#91a6c4" stroke-width="2"/><line x1="189.06" y1="158.39" x2="316.07" y2="154.35" stroke="#91a6c4" stroke-width="2"/><line x1="316.07" y1="154.35" x2="193.83" y2="120.00" stroke="#91a6c4" stroke-width="2"/><line x1="193.83" y1="120.00" x2="75.00" y2="205.19" stroke="#91a6c4" stroke-width="2"/><circle cx="597.16" cy="610.00" r="7" fill="#a6b5ff"/><text x="607.16" y="600.00" fill="white" font-size="14" font-family="sans-serif">1</text><circle cx="712.97" cy="508.23" r="7" fill="#a6b5ff"/><text x="722.97" y="498.23" fill="white" font-size="14" font-family="sans-serif">2</text><circle cx="592.03" cy="367.37" r="7" fill="#a6b5ff"/><text x="602.03" y="357.37" fill="white" font-size="14" font-family="sans-serif">3</text><circle cx="454.90" cy="287.76" r="7" fill="#a6b5ff"/><text x="464.90" y="277.76" fill="white" font-size="14" font-family="sans-serif">4</text><circle cx="356.96" cy="354.63" r="7" fill="#a6b5ff"/><text x="366.96" y="344.63" fill="white" font-size="14" font-family="sans-serif">5</text><circle cx="255.21" cy="416.27" r="7" fill="#a6b5ff"/><text x="265.21" y="406.27" fill="white" font-size="14" font-family="sans-serif">6</text><circle cx="161.71" cy="314.43" r="7" fill="#6ee7ca"/><text x="171.71" y="304.43" fill="white" font-size="14" font-family="sans-serif">7</text><circle cx="119.45" cy="231.82" r="7" fill="#6ee7ca"/><text x="129.45" y="221.82" fill="white" font-size="14" font-family="sans-serif">8</text><circle cx="189.06" cy="158.39" r="7" fill="#6ee7ca"/><text x="199.06" y="148.39" fill="white" font-size="14" font-family="sans-serif">9</text><circle cx="316.07" cy="154.35" r="7" fill="#6ee7ca"/><text x="326.07" y="144.35" fill="white" font-size="14" font-family="sans-serif">10</text><circle cx="193.83" cy="120.00" r="7" fill="#6ee7ca"/><text x="203.83" y="110.00" fill="white" font-size="14" font-family="sans-serif">11</text><circle cx="75.00" cy="205.19" r="7" fill="#6ee7ca"/><text x="85.00" y="195.19" fill="white" font-size="14" font-family="sans-serif">12</text><text x="30" y="670" fill="#bdc9dd" font-size="15" font-family="sans-serif">Arrows/headings are omitted; use RGB playback to inspect actual camera rotation.</text></svg>