<svg xmlns="http://www.w3.org/2000/svg" viewBox="0 0 900 700"><rect width="900" height="700" fill="#111923"/><text x="30" y="36" fill="white" font-size="21" font-family="sans-serif">12 · Indoor → outdoor · 5ZKStnWn8Zo / O180</text><text x="30" y="64" fill="#bdc9dd" font-size="15" font-family="sans-serif">Native capture positions in world XY; labels are frame numbers. Blue=indoor, green=exterior.</text><text x="30" y="89" fill="#bdc9dd" font-size="14" font-family="sans-serif">Amber segment: crossing6→7. Shared positions collect rotation/revisit frames; not a floorplan.</text><line x1="75.00" y1="129.15" x2="150.90" y2="120.00" stroke="#91a6c4" stroke-width="2"/><line x1="150.90" y1="120.00" x2="269.77" y2="255.54" stroke="#91a6c4" stroke-width="2"/><line x1="269.77" y1="255.54" x2="336.89" y2="254.52" stroke="#91a6c4" stroke-width="2"/><line x1="336.89" y1="254.52" x2="328.32" y2="368.55" stroke="#91a6c4" stroke-width="2"/><line x1="328.32" y1="368.55" x2="327.36" y2="459.17" stroke="#91a6c4" stroke-width="2"/><line x1="327.36" y1="459.17" x2="414.74" y2="543.62" stroke="#ffd179" stroke-width="5"/><line x1="414.74" y1="543.62" x2="477.99" y2="610.00" stroke="#91a6c4" stroke-width="2"/><line x1="477.99" y1="610.00" x2="566.63" y2="544.52" stroke="#91a6c4" stroke-width="2"/><line x1="566.63" y1="544.52" x2="517.87" y2="458.95" stroke="#91a6c4" stroke-width="2"/><line x1="517.87" y1="458.95" x2="432.36" y2="470.68" stroke="#91a6c4" stroke-width="2"/><line x1="432.36" y1="470.68" x2="462.52" y2="374.55" stroke="#91a6c4" stroke-width="2"/><circle cx="75.00" cy="129.15" r="7" fill="#a6b5ff"/><text x="85.00" y="119.15" fill="white" font-size="14" font-family="sans-serif">1</text><circle cx="150.90" cy="120.00" r="7" fill="#a6b5ff"/><text x="160.90" y="110.00" fill="white" font-size="14" font-family="sans-serif">2</text><circle cx="269.77" cy="255.54" r="7" fill="#a6b5ff"/><text x="279.77" y="245.54" fill="white" font-size="14" font-family="sans-serif">3</text><circle cx="336.89" cy="254.52" r="7" fill="#a6b5ff"/><text x="346.89" y="244.52" fill="white" font-size="14" font-family="sans-serif">4</text><circle cx="328.32" cy="368.55" r="7" fill="#a6b5ff"/><text x="338.32" y="358.55" fill="white" font-size="14" font-family="sans-serif">5</text><circle cx="327.36" cy="459.17" r="7" fill="#a6b5ff"/><text x="337.36" y="449.17" fill="white" font-size="14" font-family="sans-serif">6</text><circle cx="414.74" cy="543.62" r="7" fill="#6ee7ca"/><text x="424.74" y="533.62" fill="white" font-size="14" font-family="sans-serif">7</text><circle cx="477.99" cy="610.00" r="7" fill="#6ee7ca"/><text x="487.99" y="600.00" fill="white" font-size="14" font-family="sans-serif">8</text><circle cx="566.63" cy="544.52" r="7" fill="#6ee7ca"/><text x="576.63" y="534.52" fill="white" font-size="14" font-family="sans-serif">9</text><circle cx="517.87" cy="458.95" r="7" fill="#6ee7ca"/><text x="527.87" y="448.95" fill="white" font-size="14" font-family="sans-serif">10</text><circle cx="432.36" cy="470.68" r="7" fill="#6ee7ca"/><text x="442.36" y="460.68" fill="white" font-size="14" font-family="sans-serif">11</text><circle cx="462.52" cy="374.55" r="7" fill="#6ee7ca"/><text x="472.52" y="364.55" fill="white" font-size="14" font-family="sans-serif">12</text><text x="30" y="670" fill="#bdc9dd" font-size="15" font-family="sans-serif">Arrows/headings are omitted; use RGB playback to inspect actual camera rotation.</text></svg>