<svg xmlns="http://www.w3.org/2000/svg" viewBox="0 0 900 700"><rect width="900" height="700" fill="#111923"/><text x="30" y="36" fill="white" font-size="21" font-family="sans-serif">49 · Indoor → outdoor · vyrNrziPKCB / O1342</text><text x="30" y="64" fill="#bdc9dd" font-size="15" font-family="sans-serif">Native capture positions in world XY; labels are frame numbers. Blue=indoor, green=exterior.</text><text x="30" y="89" fill="#bdc9dd" font-size="14" font-family="sans-serif">Amber segment: crossing6→7. Shared positions collect rotation/revisit frames; not a floorplan.</text><line x1="75.00" y1="496.02" x2="172.95" y2="527.15" stroke="#91a6c4" stroke-width="2"/><line x1="172.95" y1="527.15" x2="92.75" y2="610.00" stroke="#91a6c4" stroke-width="2"/><line x1="92.75" y1="610.00" x2="172.95" y2="527.15" stroke="#91a6c4" stroke-width="2"/><line x1="172.95" y1="527.15" x2="254.16" y2="439.44" stroke="#91a6c4" stroke-width="2"/><line x1="254.16" y1="439.44" x2="206.21" y2="352.01" stroke="#91a6c4" stroke-width="2"/><line x1="206.21" y1="352.01" x2="262.60" y2="248.32" stroke="#ffd179" stroke-width="5"/><line x1="262.60" y1="248.32" x2="191.47" y2="120.00" stroke="#91a6c4" stroke-width="2"/><line x1="191.47" y1="120.00" x2="200.02" y2="194.26" stroke="#91a6c4" stroke-width="2"/><line x1="200.02" y1="194.26" x2="313.03" y2="178.26" stroke="#91a6c4" stroke-width="2"/><line x1="313.03" y1="178.26" x2="455.43" y2="193.16" stroke="#91a6c4" stroke-width="2"/><line x1="455.43" y1="193.16" x2="377.54" y2="332.30" stroke="#91a6c4" stroke-width="2"/><circle cx="75.00" cy="496.02" r="7" fill="#a6b5ff"/><text x="85.00" y="486.02" fill="white" font-size="14" font-family="sans-serif">1</text><circle cx="172.95" cy="527.15" r="7" fill="#a6b5ff"/><text x="182.95" y="517.15" fill="white" font-size="14" font-family="sans-serif">2,4</text><circle cx="92.75" cy="610.00" r="7" fill="#a6b5ff"/><text x="102.75" y="600.00" fill="white" font-size="14" font-family="sans-serif">3</text><circle cx="254.16" cy="439.44" r="7" fill="#a6b5ff"/><text x="264.16" y="429.44" fill="white" font-size="14" font-family="sans-serif">5</text><circle cx="206.21" cy="352.01" r="7" fill="#a6b5ff"/><text x="216.21" y="342.01" fill="white" font-size="14" font-family="sans-serif">6</text><circle cx="262.60" cy="248.32" r="7" fill="#6ee7ca"/><text x="272.60" y="238.32" fill="white" font-size="14" font-family="sans-serif">7</text><circle cx="191.47" cy="120.00" r="7" fill="#6ee7ca"/><text x="201.47" y="110.00" fill="white" font-size="14" font-family="sans-serif">8</text><circle cx="200.02" cy="194.26" r="7" fill="#6ee7ca"/><text x="210.02" y="184.26" fill="white" font-size="14" font-family="sans-serif">9</text><circle cx="313.03" cy="178.26" r="7" fill="#6ee7ca"/><text x="323.03" y="168.26" fill="white" font-size="14" font-family="sans-serif">10</text><circle cx="455.43" cy="193.16" r="7" fill="#6ee7ca"/><text x="465.43" y="183.16" fill="white" font-size="14" font-family="sans-serif">11</text><circle cx="377.54" cy="332.30" r="7" fill="#6ee7ca"/><text x="387.54" y="322.30" fill="white" font-size="14" font-family="sans-serif">12</text><text x="30" y="670" fill="#bdc9dd" font-size="15" font-family="sans-serif">Arrows/headings are omitted; use RGB playback to inspect actual camera rotation.</text></svg>