<svg xmlns="http://www.w3.org/2000/svg" viewBox="0 0 900 700"><rect width="900" height="700" fill="#111923"/><text x="30" y="36" fill="white" font-size="21" font-family="sans-serif">06 · Indoor → outdoor · 2azQ1b91cZZ / O91</text><text x="30" y="64" fill="#bdc9dd" font-size="15" font-family="sans-serif">Native capture positions in world XY; labels are frame numbers. Blue=indoor, green=exterior.</text><text x="30" y="89" fill="#bdc9dd" font-size="14" font-family="sans-serif">Amber segment: crossing6→7. Shared positions collect rotation/revisit frames; not a floorplan.</text><line x1="805.00" y1="341.58" x2="693.66" y2="343.89" stroke="#91a6c4" stroke-width="2"/><line x1="693.66" y1="343.89" x2="604.50" y2="401.73" stroke="#91a6c4" stroke-width="2"/><line x1="604.50" y1="401.73" x2="539.14" y2="450.41" stroke="#91a6c4" stroke-width="2"/><line x1="539.14" y1="450.41" x2="450.15" y2="607.79" stroke="#91a6c4" stroke-width="2"/><line x1="450.15" y1="607.79" x2="370.40" y2="610.00" stroke="#91a6c4" stroke-width="2"/><line x1="370.40" y1="610.00" x2="249.68" y2="594.16" stroke="#ffd179" stroke-width="5"/><line x1="249.68" y1="594.16" x2="176.43" y2="581.09" stroke="#91a6c4" stroke-width="2"/><line x1="176.43" y1="581.09" x2="75.00" y2="588.26" stroke="#91a6c4" stroke-width="2"/><line x1="75.00" y1="588.26" x2="176.43" y2="581.09" stroke="#91a6c4" stroke-width="2"/><line x1="176.43" y1="581.09" x2="249.68" y2="594.16" stroke="#91a6c4" stroke-width="2"/><line x1="249.68" y1="594.16" x2="176.43" y2="581.09" stroke="#91a6c4" stroke-width="2"/><circle cx="805.00" cy="341.58" r="7" fill="#a6b5ff"/><text x="815.00" y="331.58" fill="white" font-size="14" font-family="sans-serif">1</text><circle cx="693.66" cy="343.89" r="7" fill="#a6b5ff"/><text x="703.66" y="333.89" fill="white" font-size="14" font-family="sans-serif">2</text><circle cx="604.50" cy="401.73" r="7" fill="#a6b5ff"/><text x="614.50" y="391.73" fill="white" font-size="14" font-family="sans-serif">3</text><circle cx="539.14" cy="450.41" r="7" fill="#a6b5ff"/><text x="549.14" y="440.41" fill="white" font-size="14" font-family="sans-serif">4</text><circle cx="450.15" cy="607.79" r="7" fill="#a6b5ff"/><text x="460.15" y="597.79" fill="white" font-size="14" font-family="sans-serif">5</text><circle cx="370.40" cy="610.00" r="7" fill="#a6b5ff"/><text x="380.40" y="600.00" fill="white" font-size="14" font-family="sans-serif">6</text><circle cx="249.68" cy="594.16" r="7" fill="#6ee7ca"/><text x="259.68" y="584.16" fill="white" font-size="14" font-family="sans-serif">7,11</text><circle cx="176.43" cy="581.09" r="7" fill="#6ee7ca"/><text x="186.43" y="571.09" fill="white" font-size="14" font-family="sans-serif">8,10,12</text><circle cx="75.00" cy="588.26" r="7" fill="#6ee7ca"/><text x="85.00" y="578.26" fill="white" font-size="14" font-family="sans-serif">9</text><text x="30" y="670" fill="#bdc9dd" font-size="15" font-family="sans-serif">Arrows/headings are omitted; use RGB playback to inspect actual camera rotation.</text></svg>